<?xml version="1.0" encoding="utf-8"?>
<!-- Generator: Adobe Illustrator 18.0.0, SVG Export Plug-In . SVG Version: 6.00 Build 0)  -->
<!DOCTYPE svg PUBLIC "-//W3C//DTD SVG 1.1//EN" "http://www.w3.org/Graphics/SVG/1.1/DTD/svg11.dtd">
<svg version="1.1" id="Layer_1" xmlns="http://www.w3.org/2000/svg" xmlns:xlink="http://www.w3.org/1999/xlink" x="0px" y="0px"
	 viewBox="0 0 100 100" enable-background="new 0 0 100 100" xml:space="preserve">
<g>
	<path fill="#929292" d="M38.6,74.9c23.1,0,35.7-19.1,35.7-35.7c0-0.5,0-1.1,0-1.6c2.5-1.8,4.6-4,6.3-6.5c-2.3,1-4.7,1.7-7.2,2
		c2.6-1.6,4.6-4,5.5-6.9c-2.4,1.4-5.1,2.5-8,3c-2.3-2.4-5.6-4-9.2-4c-6.9,0-12.6,5.6-12.6,12.6c0,1,0.1,1.9,0.3,2.9
		C39.1,40,29.8,35,23.7,27.4c-1.1,1.9-1.7,4-1.7,6.3c0,4.4,2.2,8.2,5.6,10.5c-2.1-0.1-4-0.6-5.7-1.6c0,0.1,0,0.1,0,0.2
		c0,6.1,4.3,11.2,10.1,12.3c-1.1,0.3-2.2,0.4-3.3,0.4c-0.8,0-1.6-0.1-2.4-0.2c1.6,5,6.2,8.6,11.7,8.7c-4.3,3.4-9.7,5.4-15.6,5.4
		c-1,0-2-0.1-3-0.2C24.9,72.8,31.6,74.9,38.6,74.9"/>
</g>
<g>
	<path fill="#929292" d="M320.7,68.3c0.1-0.4,0.2-0.8,0.2-1.2V32.9c0-0.4-0.1-0.8-0.2-1.1L300.5,49L320.7,68.3z"/>
	<path fill="#929292" d="M290,53.1l5.3-4.3l2.7-2.2l20.2-17.3c-0.3-0.1-0.7-0.2-1-0.2h-54.3c-0.4,0-0.7,0.1-1,0.2L282,46.7l2.7,2.2
		L290,53.1z"/>
	<path fill="#929292" d="M317.2,70.8c0.3,0,0.7-0.1,1-0.2l-20.3-19.5l-7.9,6.4l-7.8-6.4l-20.3,19.5c0.3,0.1,0.6,0.2,1,0.2H317.2z"/>
	<path fill="#929292" d="M259.3,31.7c-0.1,0.4-0.2,0.7-0.2,1.1v34.3c0,0.4,0.1,0.8,0.2,1.2L279.5,49L259.3,31.7z"/>
</g>
<path fill="#929292" d="M163.8,84V52.2h-10.7V39.9h10.7v-9.1c0-10.6,6.5-16.4,15.9-16.4c4.5,0,8.4,0.3,9.5,0.5v11.1l-6.5,0
	c-5.1,0-6.1,2.4-6.1,6v7.9h12.2l-1.6,12.4h-10.7V84H163.8z"/>
</svg>
